<svg xmlns="http://www.w3.org/2000/svg" viewBox="0 0 64 64">
  <defs>
    <linearGradient id="bg" x1="0%" y1="0%" x2="100%" y2="100%">
      <stop offset="0%" stop-color="#065f46"/>
      <stop offset="100%" stop-color="#047857"/>
    </linearGradient>
  </defs>
  
  <!-- Фон -->
  <rect width="64" height="64" rx="12" fill="url(#bg)"/>
  
  <!-- Овальный фон для иконки -->
  <ellipse cx="32" cy="32" rx="20" ry="16" fill="rgba(255,255,255,0.1)"/>
  
  <!-- Telegram иконка -->
  <path d="M32 16c-8.8 0-16 7.2-16 16s7.2 16 16 16 16-7.2 16-16-7.2-16-16-16zm7.5 10.8l-1.8 8.5c-.2.8-.6 1-1.2.6l-3.3-2.4-1.6 1.5c-.2.2-.3.3-.6.3l.2-3.5 6.4-5.8c.3-.3-.1-.4-.5-.1l-7.9 5-3.4-1.1c-.7-.2-.7-.7.1-1l13.2-5.1c.6-.2 1.1.3.8 1.1z" fill="white"/>
  
  <!-- Линия под иконкой -->
  <rect x="24" y="48" width="16" height="2" rx="1" fill="white" opacity="0.8"/>
</svg>
